<svg xmlns="http://www.w3.org/2000/svg" width="256" height="256"><path fill-opacity=".016" d="M0 128.004v128.004l128.25-.254 128.25-.254.254-127.75L257.008 0H0v128.004m.485.496c0 70.4.119 99.053.265 63.672.146-35.38.146-92.98 0-128C.604 29.153.485 58.1.485 128.5" fill="#1976D2" fill-rule="evenodd"/><path fill-opacity=".167" d="M106.235 16.438c-23.99 4.544-43.85 15.116-60 31.937C30.456 64.811 20.726 83.608 16.921 105c-1.711 9.621-1.711 28.379 0 38 7.8 43.861 42.082 78.391 86.549 87.176 14.328 2.831 35.888 2.162 50.007-1.552 25.853-6.8 49.422-24.01 64.292-46.948 19.972-30.808 22.393-72.52 6.091-104.958-5.821-11.583-10.996-18.865-20.28-28.535-13.962-14.543-31.245-24.576-51.529-29.912-11.876-3.124-34.27-4.02-45.816-1.833m-1.45 3.477C81.981 24.89 64.336 34.341 50.18 49.162 39.745 60.087 34.091 67.885 29.006 78.363c-7.952 16.388-9.509 23.792-9.491 45.137.017 20.92 1.558 28.538 8.925 44.123 11.983 25.35 31.307 43.637 56.809 53.761 22.622 8.98 49.708 9.989 72.496 2.7 30.795-9.85 56.19-33.923 67.077-63.584 4.981-13.57 6.574-22.608 6.522-37-.079-21.994-4.295-36.065-16.816-56.131-13.364-21.414-30.73-35.287-54.528-43.557-15.795-5.49-40.066-7.203-55.215-3.897m59.676 36.963c-8.89 4.039-15.838 15.992-15.619 26.874.086 4.295.027 4.378-2.688 3.782-2.001-.44-3.251-.085-4.478 1.272-1.468 1.621-3.399 1.911-13.981 2.097-11.285.198-12.429.048-14.146-1.849-1.731-1.913-1.772-2.573-.554-9.027 1.298-6.877 1.281-7.011-1.343-10.976-2.927-4.423-5.819-5.61-11.444-4.697-4.96.805-10.664 6.695-9.803 10.123.742 2.956-1.096 4.327-2.757 2.057-1.635-2.237-8.551-3.051-13.117-1.544-8.544 2.82-15.508 12.923-15.516 22.51-.006 7.409 1.604 11.923 5.891 16.521 3.344 3.586 4.595 4.219 9.697 4.912 7.055.957 10.561.074 15.52-3.912 3.399-2.731 3.89-2.865 5.311-1.444.861.861 1.576 2.096 1.588 2.744.012.649 1.975 3.317 4.362 5.929 3.642 3.987 5.093 4.854 9.019 5.392 3.074.421 5.019 1.278 5.673 2.499.849 1.588.619 1.859-1.573 1.859-1.412 0-4.158.665-6.103 1.477-1.945.813-3.843 1.412-4.218 1.332-1.244-.266-8.635 1.485-11.741 2.782-1.683.702-3.595 2.452-4.25 3.89-1.701 3.733-1.47 9.663.488 12.546 2.403 3.538 11.015 13.605 16.571 19.37 4.619 4.793 5.679 6.603 3.867 6.603-1.376 0-2.045 3.847-.761 4.373 1.151.472.149.646-6.437 1.119-6.629.476-10.27 4.428-6.669 7.239 1.628 1.271 9.494 3.192 10.196 2.489.299-.298 1.783-.649 3.298-.781 3.238-.28 10.807-1.371 13.988-2.016 1.227-.248 2.877-1.699 3.665-3.224 1.291-2.497 1.246-3.016-.459-5.236-1.042-1.354-1.904-3.25-1.916-4.213-.021-1.66-1.047-2.17-3.704-1.84-1.899.236-7.199-8.315-7.91-12.762-.592-3.7-.415-4.188 1.897-5.241 1.482-.676 3.318-2.935 4.383-5.396l1.833-4.234 4.818 5.612c7.223 8.413 17.434 27.111 14.805 27.111-.455 0-1.373 1.82-2.039 4.045-.8 2.669-2.01 4.349-3.558 4.937-1.29.49-3.066 1.92-3.946 3.177-1.491 2.128-1.464 2.423.386 4.273 1.823 1.823 2.448 1.89 7.599.809 6.464-1.356 14.932-7.185 15.871-10.924.417-1.662-.17-3.385-1.943-5.71-4.162-5.456-9.187-28.186-5.957-26.947 1.682.646 8.592-5.665 10.905-9.959 2.518-4.676 1.492-7.843-4.477-13.811-2.712-2.712-4.088-4.48-3.057-3.928 2.814 1.505 7.75-.543 8.499-3.528.751-2.991-.182-7.115-2.359-10.434-.902-1.375-2.249-3.85-2.994-5.5a287.506 287.506 0 0 0-2.871-6.119c-.923-1.898-1.213-3.857-.74-5 .68-1.644.952-1.471 2.162 1.374.762 1.79 2.17 4.089 3.13 5.109.96 1.02 3.005 3.497 4.544 5.503 1.539 2.007 5.139 4.853 8 6.324 7.008 3.604 13.331 3.606 20.906.005 8.514-4.047 13.057-10.969 14.28-21.757.34-2.991 1.038-5.587 1.553-5.768.514-.181 1.954-1.165 3.199-2.187 1.839-1.51 2.054-2.198 1.15-3.671-.728-1.184-2.028-1.701-3.75-1.491-1.589.193-2.637-.166-2.637-.904 0-2.654-5.062-11.707-9.131-16.33-7.743-8.796-19.181-11.901-28.408-7.71M188.5 63c.995 1.1 2.035 2 2.31 2 .275 0-.315-.9-1.31-2-.995-1.1-2.035-2-2.31-2-.275 0 .315.9 1.31 2M80.813 76.683c.721.289 1.584.253 1.916-.079.332-.332-.258-.568-1.312-.525-1.165.048-1.402.285-.604.604m-9.941 6.067c-1.243 1.586-1.208 1.621.378.378C72.916 81.821 73.445 81 72.622 81c-.207 0-.995.787-1.75 1.75m122.878-1.088c.688.278 1.813.278 2.5 0 .688-.277.125-.504-1.25-.504s-1.937.227-1.25.504M172 112.5c1.292 1.375 2.574 2.5 2.849 2.5.275 0-.557-1.125-1.849-2.5-1.292-1.375-2.574-2.5-2.849-2.5-.275 0 .557 1.125 1.849 2.5m-81 28.441c0 .518.445 1.216.989 1.552.566.35.734-.051.393-.941-.665-1.732-1.382-2.049-1.382-.611m16 11.437c0 .207.787.995 1.75 1.75 1.586 1.243 1.621 1.208.378-.378-1.307-1.666-2.128-2.195-2.128-1.372" fill="#1976D2" fill-rule="evenodd"/><path fill-opacity=".368" d="M115.5 15.647c-26.796 3.107-45.575 11.317-64.742 28.306C36.148 56.902 21.305 82.777 17.46 102c-1.403 7.013-1.396 35.278.01 42.576 9.816 50.94 54.74 87.416 107.67 87.423 34.986.004 67.041-16.159 88.082-44.413 15.776-21.186 23.725-49.655 20.826-74.59-4.422-38.036-26.513-69.686-60.548-86.748-16.171-8.107-40.754-12.6-58-10.601m-12.191 4.426C80.136 24.941 63.14 34.709 46.856 52.52 33.244 67.407 27.53 77.24 22.597 94.262c-15.205 52.47 12.19 107.505 63.633 127.834 15.096 5.966 37.762 8.431 54.875 5.969 25.896-3.727 51.098-18.056 67.391-38.319 7.975-9.918 16.733-27.054 19.548-38.246 6.363-25.3 4.199-51.307-5.95-71.5-17.086-33.997-42.734-53.883-77.954-60.443-11.46-2.134-29.288-1.909-40.831.516m64.685 35.861c-6.343 1.93-12.207 6.563-14.872 11.75-1.981 3.856-1.203 3.727 1.711-.284 2.955-4.067 6.167-7.158 6.167-5.934 0 .392 1.385-.453 3.077-1.877 4.668-3.928 5.086-3.098.786 1.56-6.029 6.53-8.292 13.45-8.292 25.351 0 12.529 2.315 19.025 9.632 27.031 2.783 3.046 5.264 5.335 5.512 5.087.249-.248-1.432-2.335-3.734-4.637-13.984-13.984-14.259-38.671-.597-53.574 4.054-4.422 4.188-4.479 8.911-3.806 2.637.376 7.362 2.192 10.5 4.035l5.705 3.352-3.5-3.028c-5.482-4.743-14.692-6.946-21.006-5.026m1.262 5.316c-10.457 10.682-12.094 28.799-3.984 44.083 3.617 6.817 14.827 17.429 14.701 13.917-.015-.412-1.828-1.861-4.029-3.22-4.488-2.769-10.155-10.426-12.329-16.659-4.926-14.118-1.805-29.801 7.683-38.621 2.219-2.062 3.604-3.75 3.077-3.75-.527 0-2.831 1.913-5.119 4.25m-11.61 4.408c-8.202 12.586-7.307 32.92 1.985 45.103 1.414 1.854 2.807 3.135 3.094 2.847.288-.288-.622-1.886-2.023-3.55-8.403-9.987-9.597-29.043-2.629-41.979 3.438-6.382 3.165-7.932-.427-2.421m19.215-1.599-2.361 2.06 3-1.757c3.948-2.312 4.007-2.362 2.777-2.362-.58 0-2.118.927-3.416 2.059m7.297.941c0 1.375.227 1.938.504 1.25.278-.687.278-1.812 0-2.5-.277-.687-.504-.125-.504 1.25m-86.13.113c-1.36.543-3.29 1.864-4.289 2.937-2.082 2.235-1.187 2.651 1.182.549 2.947-2.614 9.164-3.703 12.278-2.15 1.54.769 2.801 1.026 2.801.572 0-.965-5.569-3.05-7.899-2.958-.881.035-2.714.508-4.073 1.05m78.316 3.57c1.014 1.2 2.477 1.939 3.25 1.643 1.738-.667 1.888-1.667.156-1.04-.687.249-2.15-.276-3.25-1.166-1.971-1.597-1.974-1.589-.156.563M94.75 72.068c-2.4 1.267-3.75 2.691-3.75 3.956C91 77.111 90.534 78 89.965 78c-.654 0-.58.829.202 2.25.68 1.237 1.371 2.813 1.535 3.5.164.688.489 2.037.721 3 .233.963.458 2.055.5 2.429.043.373.785 1.387 1.651 2.252 1.433 1.433 1.41 1.628-.25 2.163-1.003.323-2.785 1.045-3.959 1.604-1.181.563-3.938.712-6.174.334-3.423-.578-4.204-.376-5.112 1.32-2.016 3.768 1.209 7.135 4.928 5.144 3.197-1.711 5.993-1.219 5.993 1.054 0 1.127.666 3.338 1.481 4.913 1.436 2.777 1.374 2.957-2.035 5.95-1.934 1.698-4.025 3.087-4.647 3.087-.623 0-.874.258-.559.574.749.748 6.038-1.999 7.696-3.997.71-.855 1.69-1.308 2.177-1.007 1.153.712 1.118.159-.201-3.255-1.771-4.579-1.903-8.077-.355-9.362.794-.659 1.443-2.139 1.443-3.29 0-1.912.137-1.955 1.59-.502 1.437 1.437 1.442 1.876.056 4.557-1.435 2.774-1.392 3.171.66 6.107 2.762 3.953 4.118 4.044 3.354.224-.562-2.808.893-9.049 2.109-9.049.315 0 1.396.745 2.402 1.655 1.08.977 1.829 1.185 1.829.508 0-.63-.9-1.708-2-2.395-2.516-1.571-2.53-2.396-.05-3.045 1.072-.28 2.797-1.904 3.834-3.608l1.884-3.098 2.34 2.492c1.64 1.745 3.411 2.495 5.916 2.506 3.671.014 10.178 1.952 15.094 4.494 1.527.79 4.199 3.748 5.937 6.573 1.738 2.824 3.428 4.869 3.754 4.542 1.002-1.002-6.652-11.667-8.994-12.534-1.912-.707-1.708-.872 1.551-1.253 3.643-.425 3.828-.29 6.244 4.559 2.019 4.051 2.49 6.485 2.49 12.864v7.868l-6-4.209c-3.544-2.486-6-4.944-6-6.005 0-.988-.521-2.118-1.158-2.511-.811-.502-.965.003-.513 1.691.354 1.323.65 2.707.657 3.074.008.368 1.589 1.642 3.514 2.832 1.925 1.19 3.5 2.951 3.5 3.915 0 .963 1.481 3.465 3.291 5.559 2.419 2.799 4.206 3.891 6.75 4.125l3.459.318-2.485-1.709c-1.367-.939-3.842-2.999-5.5-4.577l-3.015-2.869 2.865 1.717 2.865 1.718-.722-10.349c-.591-8.471-1.201-11.208-3.362-15.088-2.241-4.022-2.451-5.041-1.393-6.736 1.655-2.65 1.543-3.997-.147-1.771-1.142 1.504-3.153 1.762-14.164 1.817-12.274.061-12.91-.037-14.619-2.253-.983-1.274-1.585-2.879-1.337-3.567.984-2.728-.56-1.025-2.475 2.729-3.069 6.016-11.161 9.38-12.279 5.105-.275-1.053.01-2.43.634-3.059.849-.856.653-.96-.78-.414-1.336.509-1.696.375-1.191-.441.398-.644.246-1.17-.336-1.17C94.477 88 94 86.447 94 84.55c0-1.992-.62-3.797-1.466-4.271-2.267-1.269-.733-5.033 2.76-6.776 1.689-.842 3.326-1.178 3.638-.747.312.432 1.793 1.323 3.29 1.98 1.535.674 3 2.302 3.359 3.73.387 1.543 1.343 2.534 2.444 2.534.995 0 2.076.563 2.403 1.25.327.688.406.237.177-1-.441-2.373.873-3.131 1.733-1 .301.747.536.545.583-.5.09-2.003-1.955-2.316-3.704-.567-.651.651-1.304.989-1.45.75-.147-.238-.957-1.783-1.8-3.433-.872-1.705-2.491-3.138-3.75-3.32-1.22-.175-2.217-.963-2.217-1.75 0-1.846-.706-1.761-5.25.638m55.366 3.03c-.614 1.76-1.078 4.371-1.031 5.801.051 1.562.616.405 1.414-2.899 1.499-6.201 1.298-7.724-.383-2.902m-75.616.124c-7.656 2.714-12.996 9.415-14.668 18.408-.915 4.917-.819 6.901.558 11.641C62.128 111.247 67.587 118 70.681 118c.96 0 .236-.916-1.783-2.258-7.478-4.97-10.22-18.026-5.821-27.724 2.553-5.628 4.455-7.737 9.133-10.124 5.341-2.726 5.536-2.346.694 1.356-7.709 5.893-10.622 15.025-7.909 24.791 2.037 7.334 10.344 15.051 16.005 14.868l2.5-.081-2.657-.803c-8.126-2.454-13.245-8.425-14.9-17.376-1.706-9.228 1.87-16.981 10.282-22.291 3.259-2.058 4.881-2.458 8.171-2.017l4.104.549-3-1.4c-3.538-1.651-6.871-1.732-11-.268m126.105 5.028c.487 1.399.036 1.752-2.248 1.761-8.718.034-13.214 2.712-11.837 7.052.486 1.532 1.541 1.937 5.047 1.937 3.766 0 4.433.301 4.433 2 0 1.1.388 2 .861 2 .474 0 .647-1.125.384-2.5-.426-2.226-.143-2.5 2.579-2.5 3.264 0 4.796-1.465 4.353-4.161-.382-2.329 1.599-3.269 3.529-1.675 1.372 1.132 1.545 1.107 1.13-.164-.27-.825-1.784-1.651-3.366-1.836-1.581-.185-3.46-1.085-4.175-2-1.199-1.535-1.253-1.529-.69.086M77.079 81.583c.048 1.165.285 1.402.604.605.289-.722.253-1.585-.079-1.917-.332-.332-.568.258-.525 1.312m3.734-.9c.721.289 1.584.253 1.916-.079.332-.332-.258-.568-1.312-.525-1.165.048-1.402.285-.604.604m15.493-.039C94.52 81.37 95.93 84 98.107 84c2.091 0 2.162-.134 1.286-2.418-.627-1.635-1.055-1.765-3.087-.938m71.507.039c.721.289 1.584.253 1.916-.079.332-.332-.258-.568-1.312-.525-1.165.048-1.402.285-.604.604m-2.734 2.9c.048 1.165.285 1.402.604.605.289-.722.253-1.585-.079-1.917-.332-.332-.568.258-.525 1.312M170.272 87c0 2.475.195 3.487.434 2.25.238-1.237.238-3.263 0-4.5-.239-1.237-.434-.225-.434 2.25m25.44-3.093c-6.855.599-9.086 1.954-7.977 4.845.419 1.091 1.649 1.282 5.157.802 9.157-1.252 9.608-1.443 9.608-4.079v-2.318c0 .087-3.054.424-6.788.75M182.195 87.5c.02 1.65.244 2.204.498 1.231.254-.973.237-2.323-.037-3-.274-.677-.481.119-.461 1.769m-17.943 3c.011 2.2.216 2.982.455 1.738.239-1.244.23-3.044-.02-4s-.446.062-.435 2.262m-20.182-.25c.039 1.237.404 3.098.81 4.134.648 1.649.96 1.461 2.494-1.5l1.754-3.384-.444 4.777c-.388 4.17-.273 4.552.904 3 1.281-1.688 1.35-1.681 1.38.14.018 1.054.265 1.684.549 1.399.284-.284-.018-2.834-.672-5.666-1.228-5.319-2.891-6.48-4.871-3.4-1.071 1.667-1.099 1.667-.581 0 .299-.963.108-1.75-.424-1.75-.533 0-.937 1.013-.899 2.25M70 92c0 .55.477 1 1.059 1s.781-.45.441-1-.816-1-1.059-1-.441.45-.441 1m60.115.908c-.847.536.514.673 3.5.351 2.687-.289 5.073-.69 5.302-.892.905-.797-7.505-.281-8.802.541M69.195 97.5c.02 1.65.244 2.204.498 1.231.254-.973.237-2.323-.037-3-.274-.677-.481.119-.461 1.769m22.884-.917c.048 1.165.285 1.402.604.605.289-.722.253-1.585-.079-1.917-.332-.332-.568.258-.525 1.312m13.447-.624c-.359.58.07 1.333.954 1.672 2.2.844 2.884-.084 1.133-1.537-.985-.818-1.639-.86-2.087-.135m-6.139 1.791c-.302.963-.985 2.831-1.516 4.152-.644 1.601-.617 2.752.081 3.45.731.731 1.048.288 1.048-1.461 0-1.38.661-3.382 1.468-4.45 1.746-2.308 1.911-3.441.501-3.441-.568 0-1.279.787-1.582 1.75m-16.928.317c-.363.586-.435 1.29-.161 1.564.798.798 7.702-.764 7.702-1.742 0-1.265-6.748-1.106-7.541.178M170 99c0 .55.459 1 1.019 1 .587 0 .77 1.165.432 2.75-.571 2.675-.543 2.696 1.051.75.902-1.1 2.057-1.888 2.569-1.75 2.16.581.707-1.884-1.636-2.775C170.243 97.762 170 97.763 170 99m6.2 4.461c-1.322 2.902-1.222 2.962 2.279 1.367 2.702-1.232 2.894-3.126.366-3.617-.818-.159-2.009.854-2.645 2.25M186.5 109l-3 .763 3.25.119c1.787.065 3.25-.332 3.25-.882s-.113-.947-.25-.882c-.137.065-1.6.462-3.25.882m9.48.524c-.696.838-1.071 1.718-.835 1.955.237.236.98-.449 1.651-1.524 1.452-2.325.968-2.58-.816-.431m-8.539 2.944c-1.067.808-1.465 1.483-.882 1.5.582.018 1.932-.629 3-1.436 1.067-.808 1.465-1.483.882-1.5-.582-.018-1.932.629-3 1.436m-84.882 1.782c2.015 6.531 7.475 13.76 10.378 13.739.969-.007.278-1.024-1.82-2.677-1.873-1.475-4.435-5.042-5.738-7.989-2.369-5.358-4.11-7.255-2.82-3.073m39.941 16.354c-2.75.784-6.8 1.467-9 1.519-2.2.051-4.556.544-5.236 1.096-.712.577-2.833.701-5 .291-6.011-1.137-13.269-.91-14.568.456-.951 1.001-.714 1.113 1.157.546 3.465-1.049 8.616-.867 10.96.388 2.566 1.373 6.866 1.429 7.687.1.34-.55 2.279-1.005 4.309-1.011 2.03-.006 5.9-.681 8.6-1.5 2.7-.819 5.581-1.489 6.404-1.489 1.796 0 9.187 7.777 9.187 9.666 0 .734.462 1.334 1.026 1.334 1.607 0-1.675-5.582-5.577-9.484-1.934-1.934-3.838-3.476-4.232-3.427-.395.05-2.967.731-5.717 1.515m-44 5.372c-5.992 1.54-8.434 2.996-9.952 5.931-3.074 5.945-1.295 11.435 6.155 18.987 3.024 3.065 2.863 2.697-1.073-2.456-3.997-5.234-4.63-6.708-4.63-10.785 0-4.58.068-4.688 2.25-3.546 1.237.647 4.152 2.913 6.478 5.035 2.325 2.122 4.834 3.858 5.575 3.858 2.712 0 5.979 4.893 6.82 10.214.57 3.606 2.109 7.125 4.863 11.115 2.216 3.211 3.773 6.252 3.461 6.757-.96 1.552-4.551-.93-12.945-8.947-7.254-6.929-7.417-7.032-1.75-1.112 3.436 3.59 6.248 7.071 6.248 7.736 0 1.603 6.852 4.419 9.053 3.72 2.094-.664 3.347-4.483 1.472-4.483-1.525 0-6.108-5.773-7.51-9.461-.543-1.428-1.068-4.047-1.166-5.818-.25-4.507-3.581-9.696-7.25-11.293l-3.099-1.35 3.128-.039c1.72-.021 3.672-.695 4.338-1.498 1.922-2.316-3.116-3.144-6.328-1.04-2.901 1.901-5.444 1.176-3.613-1.031.616-.743 1.763-1.105 2.548-.804 2.082.799 1.744-1.069-.573-3.166-1.809-1.637-2.466-1.394-2.109.778.07.428-.511 1.023-1.291 1.322-1.528.586-7.6-2.149-7.6-3.422 0-.425 3.487-1.948 7.75-3.385 7.174-2.42 7.659-3.593.75-1.817m23.7 7.224c-.66.66-1.2 1.703-1.2 2.317 0 .614-1.35 3.757-3 6.983-3.414 6.675-3.564 7.213-1.551 5.542.797-.661 1.957-2.741 2.577-4.622 1.106-3.349 2.974-4.686 2.974-2.128 0 .71 2 3.254 4.443 5.653 5.494 5.391 15.453 24.559 13.681 26.331-.618.618-1.095 2.046-1.061 3.174.059 1.885.139 1.862.999-.284 1.141-2.846 3.179-2.383 3.953.898.407 1.724.8 2.044 1.373 1.117.524-.848 1.809-1.077 3.707-.66 1.765.387 2.905.226 2.905-.41 0-.577.787-.777 1.75-.445 1.573.542 1.592.463.18-.781-3.763-3.319-7.589-14.498-8.381-24.485-.503-6.344-4.803-14.776-8.792-17.241-3.907-2.415-12.533-2.983-14.557-.959m1.467 1.054c-2.548 1.864-1.155 6.886 3.024 10.903l3.478 3.343-.639-5c-.515-4.038-.414-4.641.529-3.136.643 1.025 1.293 3.95 1.445 6.5.196 3.263 1.815 7.598 5.468 14.636 2.855 5.5 5.829 10.5 6.609 11.11.781.611 1.419 1.548 1.419 2.084 0 .535 1.35.973 3 .973 3.386 0 3.409-.034 1.906-2.843-1.474-2.754-4.604-14.264-5.391-19.824-.351-2.475-1.456-6.3-2.456-8.5s-2.075-4.767-2.39-5.705c-.745-2.222-7.798-5.795-11.438-5.795-1.567 0-3.621.564-4.564 1.254m33.333.471c0 .582-2.067 3.357-4.593 6.167-4.718 5.248-4.972 7.209-.301 2.33 3.548-3.705 6.302-8.148 5.529-8.92-.349-.349-.635-.159-.635.423m-33.884 34.443c-.164 2.361.917 4.832 2.113 4.832.687 0 .688-.404.001-1.25-.558-.687-1.236-2.15-1.506-3.25-.363-1.476-.522-1.563-.608-.332M108.179 184c.196.919-.357 1.446-1.429 1.361-.963-.076-1.75.261-1.75.75 0 1.267 3.749 1.104 4.554-.198.369-.598.139-1.611-.513-2.25-.903-.887-1.108-.807-.862.337m17.213 1.825c.385.623.156 2.155-.509 3.404-1.099 2.061-1.057 2.144.453.899 1.934-1.596 2.161-3.703.509-4.723-.707-.438-.883-.275-.453.42M96.25 187.22c-1.237.597-2.25 1.622-2.25 2.278 0 1.603 3.31 4.512 5.079 4.462.781-.022.134-.737-1.439-1.59-3.292-1.783-2.585-3.125 2.654-5.044 2.912-1.066 2.977-1.175.706-1.182-1.375-.005-3.513.48-4.75 1.076m38 4.932c-2.338 1.639-4.25 3.391-4.25 3.893 0 .503 2.025-.514 4.5-2.258 2.475-1.745 4.5-3.535 4.5-3.98 0-1.031.224-1.142-4.75 2.345M114 192c-.825.533-2.85 1.008-4.5 1.055-2.505.071-2.671.214-1.008.863 1.186.463 3.34.214 5.323-.614 1.833-.766 4.086-1.158 5.008-.871.923.287 2.352.089 3.177-.441 1.1-.705.434-.961-2.5-.961-2.2 0-4.675.436-5.5.969m37.507-.011c-.35.566.051.734.941.393 1.732-.665 2.049-1.382.611-1.382-.518 0-1.216.445-1.552.989m-49.689 2.229c.533.533 1.805.793 2.826.576 1.375-.291 1.123-.543-.97-.969-1.825-.373-2.482-.233-1.856.393m45.688.776c-.999 1.103-1.489 2.006-1.09 2.006 1.055 0 3.905-3.012 3.364-3.554-.253-.252-1.276.444-2.274 1.548M134 199.393c0 .216.675.652 1.5.969.825.316 1.5.139 1.5-.393 0-.533-.675-.969-1.5-.969s-1.5.177-1.5.393" fill="#1976D2" fill-rule="evenodd"/><path fill-opacity=".985" d="M112 16.118c-10.016 1.146-23.54 5.102-33.672 9.849C54.356 37.201 33.043 59.708 23.883 83.46c-6.186 16.041-7.208 21.578-7.294 39.54-.084 17.224.84 23.419 5.568 37.339 10.704 31.518 38.465 57.315 72.197 67.091 50.394 14.603 104.917-8.95 128.067-55.325 8.687-17.402 11.097-28.149 11.012-49.105-.06-14.554-.381-17.679-2.725-26.5-5.222-19.65-18.236-41.009-32.429-53.226-17.987-15.482-38.769-24.658-61.613-27.205-10.711-1.194-13.857-1.188-24.666.049m-.5 2.024c-10.798 1.372-21.019 4.5-32.362 9.905-12.516 5.963-20.591 11.592-28.81 20.079-17.267 17.832-25.961 33.618-30.441 55.278-2.609 12.608-2.181 32.448.972 45.096 14.189 56.926 72.995 92.283 129.715 77.991 41.743-10.518 72.839-43.472 80.057-84.841 2.105-12.063 1.396-32.912-1.491-43.848-4.669-17.689-17.14-38.561-31.101-52.052-4.981-4.812-9.533-8.75-10.117-8.75-.584 0-3.089-1.395-5.567-3.1-11.109-7.643-29.545-14.031-45.689-15.831-10.84-1.209-15.174-1.196-25.166.073m57.905 43.108L167.5 63.5l2.25-1.905c1.238-1.048 2.25-2.06 2.25-2.25 0-.8-.805-.209-2.595 1.905m-12 1L155.5 64.5l2.25-1.905c1.238-1.048 2.25-2.06 2.25-2.25 0-.8-.805-.209-2.595 1.905m6.467.5c-1.243 1.586-1.208 1.621.378.378 1.666-1.307 2.195-2.128 1.372-2.128-.207 0-.995.788-1.75 1.75M82.813 75.683c.721.289 1.584.253 1.916-.079.332-.332-.258-.568-1.312-.525-1.165.048-1.402.285-.604.604m-13.587 2.448c-3.008 1.926-8.28 9.305-8.186 11.457.022.502.752-.438 1.622-2.088 2.114-4.01 5.194-7.366 8.838-9.629 1.65-1.025 2.55-1.858 2-1.85-.55.007-2.474.956-4.274 2.11m20.774.81c0 .518.445 1.216.989 1.552.566.35.734-.051.393-.941C90.717 77.82 90 77.503 90 78.941m-21.489 4.682c-.945 1.443-1.224 2.318-.62 1.944C69.045 84.854 71.374 81 70.65 81c-.231 0-1.193 1.18-2.139 2.623M197 82.391c0 .214 1.575.574 3.5.799 1.925.225 3.5.049 3.5-.391 0-.439-1.575-.799-3.5-.799s-3.5.176-3.5.391m-5.731 1.302c.973.254 2.323.237 3-.037.677-.274-.119-.481-1.769-.461-1.65.02-2.204.244-1.231.498M152.232 88c0 1.925.206 2.713.457 1.75.252-.963.252-2.537 0-3.5-.251-.963-.457-.175-.457 1.75M202 85.941c0 .518.445 1.216.989 1.552.566.35.734-.051.393-.941-.665-1.732-1.382-2.049-1.382-.611m-55.009 3.57c-.68.819-.901 1.489-.491 1.489.41 0 .176.686-.52 1.524s-.983 1.807-.638 2.151c.345.345 1.26-.876 2.033-2.715 1.167-2.776 1.488-3.013 1.899-1.401.392 1.539.518 1.591.61.25.162-2.365-1.419-3.074-2.893-1.298m-52.378 1.672c.289.467.944.591 1.456.274 1.308-.808 1.161-1.124-.525-1.124-.801 0-1.22.383-.931.85m-34.534 1.4c.048 1.165.285 1.402.604.605.289-.722.253-1.585-.079-1.917-.332-.332-.568.258-.525 1.312m72.671-.921c.688.278 1.813.278 2.5 0 .688-.277.125-.504-1.25-.504s-1.937.227-1.25.504M64.252 95.5c.011 2.2.216 2.982.455 1.738.239-1.244.23-3.044-.02-4s-.446.062-.435 2.262m40.748-2c-1.375.786-2.024 1.445-1.441 1.465.582.019 1.932-.626 3-1.433 2.469-1.868 1.68-1.884-1.559-.032m17.813-.817c.721.289 1.584.253 1.916-.079.332-.332-.258-.568-1.312-.525-1.165.048-1.402.285-.604.604m8.687 1.229c-3.833.602-3.886.66-1.268 1.373 1.502.409 4.427 2.145 6.5 3.856l3.768 3.113-3.652-3.551-3.652-3.551 3.652-.972c4.263-1.136 1.165-1.291-5.348-.268m-51.362 2.421c-.835 1.006-.753 1.334.334 1.334.792 0 1.178-.424.859-.941-.344-.555.34-.648 1.669-.226 1.533.487 2.032.361 1.566-.393-.93-1.504-3.083-1.394-4.428.226M93 97.059c0 1.132-.359 1.837-.798 1.566-.439-.271-1.451-.08-2.25.426-1.096.693-1.129.922-.135.934.848.01 1.098.708.701 1.958-.353 1.111.27 3.681 1.453 6 2.799 5.486 3.552 5.187.865-.343l-2.138-4.401 2.151-2.734C95.126 97.571 95.667 95 94 95c-.55 0-1 .927-1 2.059m-33.921 1.524c.048 1.165.285 1.402.604.605.289-.722.253-1.585-.079-1.917-.332-.332-.568.258-.525 1.312M171 99.021c0 .539.466.979 1.035.979.688 0 .661.7-.081 2.086-.614 1.147-.896 2.306-.626 2.575.269.269.777-.415 1.128-1.521.351-1.106 1.378-2.154 2.282-2.328 1.203-.232.921-.646-1.047-1.543-1.586-.723-2.691-.824-2.691-.248m-89.282 1.686c.319.832 1.414 1.058 3.136.645 3.724-.891 3.702-1.068-.189-1.523-2.497-.291-3.304-.051-2.947.878m15.088.82c-.885 1.942-.867 2.81.08 3.75.974.966 1.099.872.596-.449-.35-.919-.136-2.607.476-3.75.612-1.143.862-2.078.556-2.078-.306 0-1.075 1.137-1.708 2.527m-31.727 1.056c.048 1.165.285 1.402.604.605.289-.722.253-1.585-.079-1.917-.332-.332-.568.258-.525 1.312m112.043-.305c-.617.617-1.086 1.82-1.043 2.672.053 1.039.246 1.136.585.294.279-.691.988-.959 1.576-.596.605.374.78.193.402-.418-.366-.593.127-1.238 1.096-1.434 1.572-.317 1.587-.424.134-.997-.896-.354-2.133-.138-2.75.479M99.158 104c0 1.375.227 1.938.504 1.25.278-.687.278-1.812 0-2.5-.277-.687-.504-.125-.504 1.25m-.658 4c.34.55 1.068 1 1.618 1s.722-.45.382-1c-.34-.55-1.068-1-1.618-1s-.722.45-.382 1m-30.681 1.5c1.088 2.183 4.804 5.772 7.181 6.938.825.405.377-.177-.996-1.291-1.373-1.115-3.551-3.292-4.839-4.837-1.336-1.603-1.914-1.951-1.346-.81m-2.819 4c1.292 1.375 2.574 2.5 2.849 2.5.275 0-.557-1.125-1.849-2.5-1.292-1.375-2.574-2.5-2.849-2.5-.275 0 .557 1.125 1.849 2.5m25.872.25c-1.243 1.586-1.208 1.621.378.378 1.666-1.307 2.195-2.128 1.372-2.128-.207 0-.995.787-1.75 1.75m-11.059 4.933c.721.289 1.584.253 1.916-.079.332-.332-.258-.568-1.312-.525-1.165.048-1.402.285-.604.604M140 119.895c0 1.784 6.901 10.005 9.413 11.212 1.314.632 1.069.212-.663-1.135-1.512-1.176-2.75-2.917-2.75-3.868 0-.952-1.35-3.023-3-4.604s-3-2.303-3-1.605m-33 3.469c0 .275 1.35 1.461 3 2.636s3 1.911 3 1.636c0-.275-1.35-1.461-3-2.636s-3-1.911-3-1.636m40 3.014c0 .207.787.995 1.75 1.75 1.586 1.243 1.621 1.208.378-.378-1.307-1.666-2.128-2.195-2.128-1.372m-9.187 6.305c.721.289 1.584.253 1.916-.079.332-.332-.258-.568-1.312-.525-1.165.048-1.402.285-.604.604m-18.185 1.262c.479.435 2.295 1.056 4.035 1.38 2.303.43 3.526.126 4.5-1.117 1.164-1.487 1.138-1.553-.197-.515-1.059.824-2.724.926-5.372.328-2.111-.476-3.446-.51-2.966-.076m13.122-.283c.688.278 1.813.278 2.5 0 .688-.277.125-.504-1.25-.504s-1.937.227-1.25.504m-30.937 2.021c.721.289 1.584.253 1.916-.079.332-.332-.258-.568-1.312-.525-1.165.048-1.402.285-.604.604m-10.063 2.889c-3.203 1.738-3.407 2.668-1 4.556 1.591 1.248 1.624 1.211.357-.402-1.637-2.087-1.558-2.199 2.939-4.149 1.9-.824 2.779-1.498 1.954-1.498-.825.001-2.737.672-4.25 1.493m64.814.721c.376.986.935 1.541 1.243 1.233.308-.307.001-1.114-.683-1.793-.988-.98-1.102-.865-.56.56m-58.406 4.825c-.974 1.561-1.616 1.824-2.44 1-.615-.615-1.51-1.118-1.989-1.118-1.603 0 6.682 7.145 9.792 8.444 3.759 1.571 6.221 5.142 6.661 9.657.327 3.367.336 3.372.944.604.785-3.576-2.42-8.579-6.957-10.858-3.483-1.75-2.752-3.373 1.09-2.421 1.233.306 1.679.297.991-.019-2.105-.966-1.388-2.246 1-1.785 2.12.409 2.111.374-.158-.62-1.972-.864-2.804-.682-4.6 1.005-1.917 1.801-2.347 1.873-3.428.57-1.564-1.884-.562-3.577 2.117-3.577 1.721 0 1.857-.249.819-1.5-1.656-1.995-2.271-1.896-3.842.618m24.099-.868c-1.348 1.705-2.184 6.75-1.118 6.75.473 0 .861-1.035.861-2.3 0-3.344 1.863-4.7 6.45-4.696 6.027.005 10.136 3.004 13.003 9.486 1.34 3.031 2.653 5.51 2.917 5.51.264 0-.661-2.645-2.056-5.878-1.942-4.502-3.421-6.376-6.311-8-4.219-2.372-12.163-2.875-13.746-.872m31.148 7-1.905 2.25 2.25-1.905c1.238-1.048 2.25-2.06 2.25-2.25 0-.8-.805-.209-2.595 1.905M123 152.378c0 .207.787.995 1.75 1.75 1.586 1.243 1.621 1.208.378-.378-1.307-1.666-2.128-2.195-2.128-1.372m7.158 2.622c0 1.375.227 1.938.504 1.25.278-.687.278-1.812 0-2.5-.277-.687-.504-.125-.504 1.25M90 155.378c0 .207.787.995 1.75 1.75 1.586 1.243 1.621 1.208.378-.378-1.307-1.666-2.128-2.195-2.128-1.372M116 157c-.589 1.1-.845 2-.57 2s.981-.9 1.57-2c.589-1.1.845-2 .57-2s-.981.9-1.57 2m12.557 1.418c1.067.78 2.153 1.206 2.412.946.551-.55-2.028-2.326-3.41-2.349-.518-.008-.068.623.998 1.403M108.5 176c.995 1.1 2.035 2 2.31 2 .275 0-.315-.9-1.31-2-.995-1.1-2.035-2-2.31-2-.275 0 .315.9 1.31 2m7.5 0c.589 1.1 1.295 2 1.57 2 .275 0 .019-.9-.57-2s-1.295-2-1.57-2c-.275 0-.019.9.57 2m-4.517 3.973c.267.432 1.393 1.023 2.503 1.313 1.109.29 1.798.174 1.531-.259-.267-.432-1.393-1.023-2.503-1.313-1.109-.29-1.798-.174-1.531.259m7.267 1.194c-.963 1.008-1.355 1.833-.872 1.833 1.008 0 3.605-2.892 3.015-3.357-.216-.171-1.18.515-2.143 1.524M140.5 183c-.34.55-.141 1 .441 1s1.059-.45 1.059-1-.198-1-.441-1-.719.45-1.059 1m10.306 1.78c.458 2.412.333 2.569-1.101 1.384-.89-.735-2.117-1.027-2.728-.65-.61.377-1.78-.146-2.599-1.164-1.407-1.749-1.433-1.734-.468.269.561 1.165.735 2.402.388 2.75-.347.347-.196.631.335.631.532 0 1.488-.521 2.125-1.158.872-.872 1.498-.874 2.542-.008.761.632 1.68.853 2.042.491.944-.944.812-4.112-.198-4.736-.47-.291-.623.695-.338 2.191m-55.826 3.744c-1.838 2.215-.792 2.47 1.27.309.963-1.008 1.355-1.833.872-1.833-.482 0-1.446.686-2.142 1.524m41.892 2.226c-1.243 1.586-1.208 1.621.378.378.963-.755 1.75-1.543 1.75-1.75 0-.823-.821-.294-2.128 1.372m-20.059.933c.721.289 1.584.253 1.916-.079.332-.332-.258-.568-1.312-.525-1.165.048-1.402.285-.604.604" fill="#1976D2" fill-rule="evenodd"/></svg>